<?xml version="1.0" encoding="utf-8" standalone="no"?>
<!DOCTYPE svg PUBLIC "-//W3C//DTD SVG 1.1//EN"
  "http://www.w3.org/Graphics/SVG/1.1/DTD/svg11.dtd">
<!-- Created with matplotlib (http://matplotlib.org/) -->
<svg height="432pt" version="1.1" viewBox="0 0 576 432" width="576pt" xmlns="http://www.w3.org/2000/svg" xmlns:xlink="http://www.w3.org/1999/xlink">
 <defs>
  <style type="text/css">
*{stroke-linecap:butt;stroke-linejoin:round;stroke-miterlimit:100000;}
  </style>
 </defs>
 <g id="figure_1">
  <g id="patch_1">
   <path d="M 0 432 
L 576 432 
L 576 0 
L 0 0 
z
" style="fill:#ffffff;"/>
  </g>
  <g id="axes_1">
   <g id="patch_2">
    <path d="M 72 388.8 
L 518.4 388.8 
L 518.4 43.2 
L 72 43.2 
z
" style="fill:#ffffff;"/>
   </g>
   <g id="line2d_1">
    <defs>
     <path d="M 0 3 
C 0.795609 3 1.55874 2.683901 2.12132 2.12132 
C 2.683901 1.55874 3 0.795609 3 0 
C 3 -0.795609 2.683901 -1.55874 2.12132 -2.12132 
C 1.55874 -2.683901 0.795609 -3 0 -3 
C -0.795609 -3 -1.55874 -2.683901 -2.12132 -2.12132 
C -2.683901 -1.55874 -3 -0.795609 -3 0 
C -3 0.795609 -2.683901 1.55874 -2.12132 2.12132 
C -1.55874 2.683901 -0.795609 3 0 3 
z
" id="m168bd6e1bf" style="stroke:#000000;stroke-width:0.5;"/>
    </defs>
    <g clip-path="url(#p788e9b1e54)">
     <use style="fill:#ff0000;stroke:#000000;stroke-width:0.5;" x="325.962571886" xlink:href="#m168bd6e1bf" y="59.56305408"/>
    </g>
   </g>
   <g id="line2d_2">
    <defs>
     <path d="M 0 3 
C 0.795609 3 1.55874 2.683901 2.12132 2.12132 
C 2.683901 1.55874 3 0.795609 3 0 
C 3 -0.795609 2.683901 -1.55874 2.12132 -2.12132 
C 1.55874 -2.683901 0.795609 -3 0 -3 
C -0.795609 -3 -1.55874 -2.683901 -2.12132 -2.12132 
C -2.683901 -1.55874 -3 -0.795609 -3 0 
C -3 0.795609 -2.683901 1.55874 -2.12132 2.12132 
C -1.55874 2.683901 -0.795609 3 0 3 
z
" id="m65a4a9eb0d" style="stroke:#000000;stroke-width:0.5;"/>
    </defs>
    <g clip-path="url(#p788e9b1e54)">
     <use style="fill:#0000ff;stroke:#000000;stroke-width:0.5;" x="238.084140343" xlink:href="#m65a4a9eb0d" y="221.83129152"/>
    </g>
   </g>
   <g id="line2d_3">
    <g clip-path="url(#p788e9b1e54)">
     <use style="fill:#ff0000;stroke:#000000;stroke-width:0.5;" x="242.756226514" xlink:href="#m168bd6e1bf" y="178.79870016"/>
    </g>
   </g>
   <g id="line2d_4">
    <g clip-path="url(#p788e9b1e54)">
     <use style="fill:#ff0000;stroke:#000000;stroke-width:0.5;" x="354.0841776" xlink:href="#m168bd6e1bf" y="111.37518144"/>
    </g>
   </g>
   <g id="line2d_5">
    <g clip-path="url(#p788e9b1e54)">
     <use style="fill:#0000ff;stroke:#000000;stroke-width:0.5;" x="353.021809371" xlink:href="#m65a4a9eb0d" y="180.2764512"/>
    </g>
   </g>
   <g id="line2d_6">
    <g clip-path="url(#p788e9b1e54)">
     <use style="fill:#ff0000;stroke:#000000;stroke-width:0.5;" x="369.646383086" xlink:href="#m168bd6e1bf" y="82.22770944"/>
    </g>
   </g>
   <g id="line2d_7">
    <g clip-path="url(#p788e9b1e54)">
     <use style="fill:#0000ff;stroke:#000000;stroke-width:0.5;" x="170.198434286" xlink:href="#m65a4a9eb0d" y="183.7416096"/>
    </g>
   </g>
   <g id="line2d_8">
    <g clip-path="url(#p788e9b1e54)">
     <use style="fill:#ff0000;stroke:#000000;stroke-width:0.5;" x="363.3978672" xlink:href="#m168bd6e1bf" y="137.3975136"/>
    </g>
   </g>
   <g id="line2d_9">
    <g clip-path="url(#p788e9b1e54)">
     <use style="fill:#ff0000;stroke:#000000;stroke-width:0.5;" x="325.3873536" xlink:href="#m168bd6e1bf" y="122.20860096"/>
    </g>
   </g>
   <g id="line2d_10">
    <g clip-path="url(#p788e9b1e54)">
     <use style="fill:#0000ff;stroke:#000000;stroke-width:0.5;" x="381.3190416" xlink:href="#m65a4a9eb0d" y="182.81662848"/>
    </g>
   </g>
   <g id="line2d_11">
    <g clip-path="url(#p788e9b1e54)">
     <use style="fill:#ff0000;stroke:#000000;stroke-width:0.5;" x="213.453255086" xlink:href="#m168bd6e1bf" y="145.18737216"/>
    </g>
   </g>
   <g id="line2d_12">
    <g clip-path="url(#p788e9b1e54)">
     <use style="fill:#0000ff;stroke:#000000;stroke-width:0.5;" x="290.952440229" xlink:href="#m65a4a9eb0d" y="203.05722816"/>
    </g>
   </g>
   <g id="line2d_13">
    <g clip-path="url(#p788e9b1e54)">
     <use style="fill:#0000ff;stroke:#000000;stroke-width:0.5;" x="386.497409143" xlink:href="#m65a4a9eb0d" y="274.9333536"/>
    </g>
   </g>
   <g id="line2d_14">
    <g clip-path="url(#p788e9b1e54)">
     <use style="fill:#0000ff;stroke:#000000;stroke-width:0.5;" x="325.542126857" xlink:href="#m65a4a9eb0d" y="196.09649856"/>
    </g>
   </g>
   <g id="line2d_15">
    <g clip-path="url(#p788e9b1e54)">
     <use style="fill:#0000ff;stroke:#000000;stroke-width:0.5;" x="324.7610544" xlink:href="#m65a4a9eb0d" y="255.89972736"/>
    </g>
   </g>
   <g id="line2d_16">
    <g clip-path="url(#p788e9b1e54)">
     <use style="fill:#0000ff;stroke:#000000;stroke-width:0.5;" x="314.5259952" xlink:href="#m65a4a9eb0d" y="294.7248288"/>
    </g>
   </g>
   <g id="line2d_17">
    <g clip-path="url(#p788e9b1e54)">
     <use style="fill:#0000ff;stroke:#000000;stroke-width:0.5;" x="391.779213943" xlink:href="#m65a4a9eb0d" y="202.96398528"/>
    </g>
   </g>
   <g id="line2d_18">
    <g clip-path="url(#p788e9b1e54)">
     <use style="fill:#0000ff;stroke:#000000;stroke-width:0.5;" x="453.691003886" xlink:href="#m65a4a9eb0d" y="246.57490368"/>
    </g>
   </g>
   <g id="line2d_19">
    <g clip-path="url(#p788e9b1e54)">
     <use style="fill:#0000ff;stroke:#000000;stroke-width:0.5;" x="219.091797257" xlink:href="#m65a4a9eb0d" y="312.0342912"/>
    </g>
   </g>
   <g id="line2d_20">
    <g clip-path="url(#p788e9b1e54)">
     <use style="fill:#ff0000;stroke:#000000;stroke-width:0.5;" x="290.319891429" xlink:href="#m168bd6e1bf" y="98.86022784"/>
    </g>
   </g>
   <g id="line2d_21">
    <g clip-path="url(#p788e9b1e54)">
     <use style="fill:#0000ff;stroke:#000000;stroke-width:0.5;" x="304.969081371" xlink:href="#m65a4a9eb0d" y="331.4084544"/>
    </g>
   </g>
   <g id="line2d_22">
    <g clip-path="url(#p788e9b1e54)">
     <use style="fill:#0000ff;stroke:#000000;stroke-width:0.5;" x="191.604334629" xlink:href="#m65a4a9eb0d" y="256.21970112"/>
    </g>
   </g>
   <g id="line2d_23">
    <g clip-path="url(#p788e9b1e54)">
     <use style="fill:#ff0000;stroke:#000000;stroke-width:0.5;" x="404.753957486" xlink:href="#m168bd6e1bf" y="136.5635808"/>
    </g>
   </g>
   <g id="line2d_24">
    <g clip-path="url(#p788e9b1e54)">
     <use style="fill:#ff0000;stroke:#000000;stroke-width:0.5;" x="280.282077257" xlink:href="#m168bd6e1bf" y="145.17468864"/>
    </g>
   </g>
   <g id="line2d_25">
    <g clip-path="url(#p788e9b1e54)">
     <use style="fill:#0000ff;stroke:#000000;stroke-width:0.5;" x="94.8301076571" xlink:href="#m65a4a9eb0d" y="330.36054336"/>
    </g>
   </g>
   <g id="line2d_26">
    <g clip-path="url(#p788e9b1e54)">
     <use style="fill:#0000ff;stroke:#000000;stroke-width:0.5;" x="347.236529143" xlink:href="#m65a4a9eb0d" y="241.50609216"/>
    </g>
   </g>
   <g id="line2d_27">
    <g clip-path="url(#p788e9b1e54)">
     <use style="fill:#ff0000;stroke:#000000;stroke-width:0.5;" x="417.4252128" xlink:href="#m168bd6e1bf" y="136.17967104"/>
    </g>
   </g>
   <g id="line2d_28">
    <g clip-path="url(#p788e9b1e54)">
     <use style="fill:#0000ff;stroke:#000000;stroke-width:0.5;" x="302.449344686" xlink:href="#m65a4a9eb0d" y="233.46513792"/>
    </g>
   </g>
   <g id="line2d_29">
    <g clip-path="url(#p788e9b1e54)">
     <use style="fill:#0000ff;stroke:#000000;stroke-width:0.5;" x="362.601362057" xlink:href="#m65a4a9eb0d" y="159.06267648"/>
    </g>
   </g>
   <g id="line2d_30">
    <g clip-path="url(#p788e9b1e54)">
     <use style="fill:#ff0000;stroke:#000000;stroke-width:0.5;" x="405.1969776" xlink:href="#m168bd6e1bf" y="102.1704192"/>
    </g>
   </g>
   <g id="line2d_31">
    <g clip-path="url(#p788e9b1e54)">
     <use style="fill:#0000ff;stroke:#000000;stroke-width:0.5;" x="241.134391543" xlink:href="#m65a4a9eb0d" y="343.97656128"/>
    </g>
   </g>
   <g id="line2d_32">
    <g clip-path="url(#p788e9b1e54)">
     <use style="fill:#0000ff;stroke:#000000;stroke-width:0.5;" x="403.3948608" xlink:href="#m65a4a9eb0d" y="216.83201472"/>
    </g>
   </g>
   <g id="line2d_33">
    <g clip-path="url(#p788e9b1e54)">
     <use style="fill:#ff0000;stroke:#000000;stroke-width:0.5;" x="344.636950629" xlink:href="#m168bd6e1bf" y="137.48577984"/>
    </g>
   </g>
   <g id="line2d_34">
    <g clip-path="url(#p788e9b1e54)">
     <use style="fill:#ff0000;stroke:#000000;stroke-width:0.5;" x="357.094954286" xlink:href="#m168bd6e1bf" y="141.13460736"/>
    </g>
   </g>
   <g id="line2d_35">
    <g clip-path="url(#p788e9b1e54)">
     <use style="fill:#ff0000;stroke:#000000;stroke-width:0.5;" x="206.585327314" xlink:href="#m168bd6e1bf" y="137.50280064"/>
    </g>
   </g>
   <g id="line2d_36">
    <g clip-path="url(#p788e9b1e54)">
     <use style="fill:#ff0000;stroke:#000000;stroke-width:0.5;" x="229.649794971" xlink:href="#m168bd6e1bf" y="92.43799488"/>
    </g>
   </g>
   <g id="line2d_37">
    <g clip-path="url(#p788e9b1e54)">
     <use style="fill:#ff0000;stroke:#000000;stroke-width:0.5;" x="251.500819886" xlink:href="#m168bd6e1bf" y="106.97498496"/>
    </g>
   </g>
   <g id="line2d_38">
    <g clip-path="url(#p788e9b1e54)">
     <use style="fill:#0000ff;stroke:#000000;stroke-width:0.5;" x="298.664191543" xlink:href="#m65a4a9eb0d" y="245.42260416"/>
    </g>
   </g>
   <g id="line2d_39">
    <g clip-path="url(#p788e9b1e54)">
     <use style="fill:#0000ff;stroke:#000000;stroke-width:0.5;" x="393.549700114" xlink:href="#m65a4a9eb0d" y="196.9029216"/>
    </g>
   </g>
   <g id="line2d_40">
    <g clip-path="url(#p788e9b1e54)">
     <use style="fill:#ff0000;stroke:#000000;stroke-width:0.5;" x="287.624783314" xlink:href="#m168bd6e1bf" y="124.05336192"/>
    </g>
   </g>
   <g id="line2d_41">
    <g clip-path="url(#p788e9b1e54)">
     <use style="fill:#0000ff;stroke:#000000;stroke-width:0.5;" x="400.555693029" xlink:href="#m65a4a9eb0d" y="292.92249024"/>
    </g>
   </g>
   <g id="line2d_42">
    <g clip-path="url(#p788e9b1e54)">
     <use style="fill:#0000ff;stroke:#000000;stroke-width:0.5;" x="379.922511086" xlink:href="#m65a4a9eb0d" y="256.1579424"/>
    </g>
   </g>
   <g id="line2d_43">
    <g clip-path="url(#p788e9b1e54)">
     <use style="fill:#ff0000;stroke:#000000;stroke-width:0.5;" x="248.154031543" xlink:href="#m168bd6e1bf" y="120.11270976"/>
    </g>
   </g>
   <g id="line2d_44">
    <g clip-path="url(#p788e9b1e54)">
     <use style="fill:#0000ff;stroke:#000000;stroke-width:0.5;" x="283.493797714" xlink:href="#m65a4a9eb0d" y="339.83064"/>
    </g>
   </g>
   <g id="line2d_45">
    <g clip-path="url(#p788e9b1e54)">
     <use style="fill:#0000ff;stroke:#000000;stroke-width:0.5;" x="341.7184512" xlink:href="#m65a4a9eb0d" y="200.06891136"/>
    </g>
   </g>
   <g id="line2d_46">
    <g clip-path="url(#p788e9b1e54)">
     <use style="fill:#ff0000;stroke:#000000;stroke-width:0.5;" x="265.872476571" xlink:href="#m168bd6e1bf" y="102.72379392"/>
    </g>
   </g>
   <g id="line2d_47">
    <g clip-path="url(#p788e9b1e54)">
     <use style="fill:#ff0000;stroke:#000000;stroke-width:0.5;" x="358.519352914" xlink:href="#m168bd6e1bf" y="112.43536128"/>
    </g>
   </g>
   <g id="line2d_48">
    <g clip-path="url(#p788e9b1e54)">
     <use style="fill:#ff0000;stroke:#000000;stroke-width:0.5;" x="338.8829184" xlink:href="#m168bd6e1bf" y="151.69268736"/>
    </g>
   </g>
   <g id="line2d_49">
    <g clip-path="url(#p788e9b1e54)">
     <use style="fill:#ff0000;stroke:#000000;stroke-width:0.5;" x="304.401260571" xlink:href="#m168bd6e1bf" y="123.96713472"/>
    </g>
   </g>
   <g id="line2d_50">
    <g clip-path="url(#p788e9b1e54)">
     <use style="fill:#ff0000;stroke:#000000;stroke-width:0.5;" x="301.716037029" xlink:href="#m168bd6e1bf" y="163.15089984"/>
    </g>
   </g>
   <g id="line2d_51">
    <g clip-path="url(#p788e9b1e54)">
     <use style="fill:#ff0000;stroke:#000000;stroke-width:0.5;" x="379.686875657" xlink:href="#m168bd6e1bf" y="65.13967296"/>
    </g>
   </g>
   <g id="line2d_52">
    <g clip-path="url(#p788e9b1e54)">
     <use style="fill:#0000ff;stroke:#000000;stroke-width:0.5;" x="423.2069856" xlink:href="#m65a4a9eb0d" y="215.51847552"/>
    </g>
   </g>
   <g id="line2d_53">
    <g clip-path="url(#p788e9b1e54)">
     <use style="fill:#0000ff;stroke:#000000;stroke-width:0.5;" x="333.441876343" xlink:href="#m65a4a9eb0d" y="184.27670208"/>
    </g>
   </g>
   <g id="line2d_54">
    <g clip-path="url(#p788e9b1e54)">
     <use style="fill:#ff0000;stroke:#000000;stroke-width:0.5;" x="305.147832686" xlink:href="#m168bd6e1bf" y="117.2018592"/>
    </g>
   </g>
   <g id="line2d_55">
    <g clip-path="url(#p788e9b1e54)">
     <use style="fill:#0000ff;stroke:#000000;stroke-width:0.5;" x="440.976894171" xlink:href="#m65a4a9eb0d" y="169.0218144"/>
    </g>
   </g>
   <g id="line2d_56">
    <g clip-path="url(#p788e9b1e54)">
     <use style="fill:#ff0000;stroke:#000000;stroke-width:0.5;" x="268.492461943" xlink:href="#m168bd6e1bf" y="102.63945024"/>
    </g>
   </g>
   <g id="line2d_57">
    <g clip-path="url(#p788e9b1e54)">
     <use style="fill:#0000ff;stroke:#000000;stroke-width:0.5;" x="273.407899886" xlink:href="#m65a4a9eb0d" y="231.22224576"/>
    </g>
   </g>
   <g id="line2d_58">
    <g clip-path="url(#p788e9b1e54)">
     <use style="fill:#0000ff;stroke:#000000;stroke-width:0.5;" x="358.360880914" xlink:href="#m65a4a9eb0d" y="268.52188608"/>
    </g>
   </g>
   <g id="line2d_59">
    <g clip-path="url(#p788e9b1e54)">
     <use style="fill:#ff0000;stroke:#000000;stroke-width:0.5;" x="326.626942629" xlink:href="#m168bd6e1bf" y="145.57031424"/>
    </g>
   </g>
   <g id="line2d_60">
    <g clip-path="url(#p788e9b1e54)">
     <use style="fill:#ff0000;stroke:#000000;stroke-width:0.5;" x="349.7951664" xlink:href="#m168bd6e1bf" y="87.30092736"/>
    </g>
   </g>
   <g id="line2d_61">
    <g clip-path="url(#p788e9b1e54)">
     <use style="fill:#ff0000;stroke:#000000;stroke-width:0.5;" x="348.932402743" xlink:href="#m168bd6e1bf" y="90.18152064"/>
    </g>
   </g>
   <g id="line2d_62">
    <g clip-path="url(#p788e9b1e54)">
     <use style="fill:#0000ff;stroke:#000000;stroke-width:0.5;" x="275.378373257" xlink:href="#m65a4a9eb0d" y="327.73279104"/>
    </g>
   </g>
   <g id="line2d_63">
    <g clip-path="url(#p788e9b1e54)">
     <use style="fill:#0000ff;stroke:#000000;stroke-width:0.5;" x="488.476978971" xlink:href="#m65a4a9eb0d" y="190.48087872"/>
    </g>
   </g>
   <g id="line2d_64">
    <g clip-path="url(#p788e9b1e54)">
     <use style="fill:#ff0000;stroke:#000000;stroke-width:0.5;" x="409.7770416" xlink:href="#m168bd6e1bf" y="101.82138048"/>
    </g>
   </g>
   <g id="line2d_65">
    <g clip-path="url(#p788e9b1e54)">
     <use style="fill:#ff0000;stroke:#000000;stroke-width:0.5;" x="357.408199543" xlink:href="#m168bd6e1bf" y="94.3481952"/>
    </g>
   </g>
   <g id="line2d_66">
    <g clip-path="url(#p788e9b1e54)">
     <use style="fill:#ff0000;stroke:#000000;stroke-width:0.5;" x="277.135021029" xlink:href="#m168bd6e1bf" y="112.151952"/>
    </g>
   </g>
   <g id="line2d_67">
    <g clip-path="url(#p788e9b1e54)">
     <use style="fill:#ff0000;stroke:#000000;stroke-width:0.5;" x="331.8556896" xlink:href="#m168bd6e1bf" y="111.911328"/>
    </g>
   </g>
   <g id="line2d_68">
    <g clip-path="url(#p788e9b1e54)">
     <use style="fill:#0000ff;stroke:#000000;stroke-width:0.5;" x="241.793214171" xlink:href="#m65a4a9eb0d" y="294.30710208"/>
    </g>
   </g>
   <g id="line2d_69">
    <g clip-path="url(#p788e9b1e54)">
     <use style="fill:#ff0000;stroke:#000000;stroke-width:0.5;" x="320.531223086" xlink:href="#m168bd6e1bf" y="64.56411072"/>
    </g>
   </g>
   <g id="line2d_70">
    <g clip-path="url(#p788e9b1e54)">
     <use style="fill:#0000ff;stroke:#000000;stroke-width:0.5;" x="317.690652343" xlink:href="#m65a4a9eb0d" y="252.72266112"/>
    </g>
   </g>
   <g id="line2d_71">
    <g clip-path="url(#p788e9b1e54)">
     <use style="fill:#ff0000;stroke:#000000;stroke-width:0.5;" x="360.144121371" xlink:href="#m168bd6e1bf" y="131.5520352"/>
    </g>
   </g>
   <g id="line2d_72">
    <g clip-path="url(#p788e9b1e54)">
     <use style="fill:#ff0000;stroke:#000000;stroke-width:0.5;" x="391.839159086" xlink:href="#m168bd6e1bf" y="171.55787904"/>
    </g>
   </g>
   <g id="line2d_73">
    <g clip-path="url(#p788e9b1e54)">
     <use style="fill:#0000ff;stroke:#000000;stroke-width:0.5;" x="221.347201371" xlink:href="#m65a4a9eb0d" y="302.8709664"/>
    </g>
   </g>
   <g id="line2d_74">
    <g clip-path="url(#p788e9b1e54)">
     <use style="fill:#0000ff;stroke:#000000;stroke-width:0.5;" x="411.2604288" xlink:href="#m65a4a9eb0d" y="264.88118016"/>
    </g>
   </g>
   <g id="line2d_75">
    <g clip-path="url(#p788e9b1e54)">
     <use style="fill:#0000ff;stroke:#000000;stroke-width:0.5;" x="458.213546057" xlink:href="#m65a4a9eb0d" y="215.65472832"/>
    </g>
   </g>
   <g id="line2d_76">
    <g clip-path="url(#p788e9b1e54)">
     <use style="fill:#0000ff;stroke:#000000;stroke-width:0.5;" x="272.775861257" xlink:href="#m65a4a9eb0d" y="226.78805952"/>
    </g>
   </g>
   <g id="line2d_77">
    <g clip-path="url(#p788e9b1e54)">
     <use style="fill:#ff0000;stroke:#000000;stroke-width:0.5;" x="230.787859886" xlink:href="#m168bd6e1bf" y="197.64877824"/>
    </g>
   </g>
   <g id="line2d_78">
    <g clip-path="url(#p788e9b1e54)">
     <use style="fill:#0000ff;stroke:#000000;stroke-width:0.5;" x="258.427034743" xlink:href="#m65a4a9eb0d" y="357.38302464"/>
    </g>
   </g>
   <g id="line2d_79">
    <g clip-path="url(#p788e9b1e54)">
     <use style="fill:#ff0000;stroke:#000000;stroke-width:0.5;" x="443.219607771" xlink:href="#m168bd6e1bf" y="124.6926528"/>
    </g>
   </g>
   <g id="line2d_80">
    <g clip-path="url(#p788e9b1e54)">
     <use style="fill:#0000ff;stroke:#000000;stroke-width:0.5;" x="256.971706971" xlink:href="#m65a4a9eb0d" y="273.22662528"/>
    </g>
   </g>
   <g id="line2d_81">
    <g clip-path="url(#p788e9b1e54)">
     <use style="fill:#0000ff;stroke:#000000;stroke-width:0.5;" x="273.844734171" xlink:href="#m65a4a9eb0d" y="332.36125632"/>
    </g>
   </g>
   <g id="line2d_82">
    <g clip-path="url(#p788e9b1e54)">
     <use style="fill:#0000ff;stroke:#000000;stroke-width:0.5;" x="273.094463314" xlink:href="#m65a4a9eb0d" y="235.887984"/>
    </g>
   </g>
   <g id="line2d_83">
    <g clip-path="url(#p788e9b1e54)">
     <use style="fill:#ff0000;stroke:#000000;stroke-width:0.5;" x="416.372218971" xlink:href="#m168bd6e1bf" y="84.17466432"/>
    </g>
   </g>
   <g id="line2d_84">
    <g clip-path="url(#p788e9b1e54)">
     <use style="fill:#0000ff;stroke:#000000;stroke-width:0.5;" x="438.866952686" xlink:href="#m65a4a9eb0d" y="207.91009152"/>
    </g>
   </g>
   <g id="line2d_85">
    <g clip-path="url(#p788e9b1e54)">
     <use style="fill:#0000ff;stroke:#000000;stroke-width:0.5;" x="332.0954064" xlink:href="#m65a4a9eb0d" y="301.36776192"/>
    </g>
   </g>
   <g id="line2d_86">
    <g clip-path="url(#p788e9b1e54)">
     <use style="fill:#ff0000;stroke:#000000;stroke-width:0.5;" x="443.510788114" xlink:href="#m168bd6e1bf" y="83.05099776"/>
    </g>
   </g>
   <g id="line2d_87">
    <g clip-path="url(#p788e9b1e54)">
     <use style="fill:#ff0000;stroke:#000000;stroke-width:0.5;" x="339.677064" xlink:href="#m168bd6e1bf" y="134.01265536"/>
    </g>
   </g>
   <g id="line2d_88">
    <g clip-path="url(#p788e9b1e54)">
     <use style="fill:#0000ff;stroke:#000000;stroke-width:0.5;" x="335.128375543" xlink:href="#m65a4a9eb0d" y="286.46246592"/>
    </g>
   </g>
   <g id="line2d_89">
    <g clip-path="url(#p788e9b1e54)">
     <use style="fill:#0000ff;stroke:#000000;stroke-width:0.5;" x="370.321658743" xlink:href="#m65a4a9eb0d" y="258.22081152"/>
    </g>
   </g>
   <g id="line2d_90">
    <g clip-path="url(#p788e9b1e54)">
     <use style="fill:#ff0000;stroke:#000000;stroke-width:0.5;" x="375.638027657" xlink:href="#m168bd6e1bf" y="117.61006464"/>
    </g>
   </g>
   <g id="line2d_91">
    <g clip-path="url(#p788e9b1e54)">
     <use style="fill:#0000ff;stroke:#000000;stroke-width:0.5;" x="188.778813943" xlink:href="#m65a4a9eb0d" y="299.91803904"/>
    </g>
   </g>
   <g id="line2d_92">
    <g clip-path="url(#p788e9b1e54)">
     <use style="fill:#ff0000;stroke:#000000;stroke-width:0.5;" x="347.303106514" xlink:href="#m168bd6e1bf" y="47.709648"/>
    </g>
   </g>
   <g id="line2d_93">
    <path clip-path="url(#p788e9b1e54)" d="M 94.830108 181.02397 
L 488.476979 148.088458 
" style="fill:none;stroke:#008000;stroke-linecap:square;"/>
   </g>
   <g id="patch_3">
    <path d="M 72 43.2 
L 518.4 43.2 
" style="fill:none;stroke:#000000;stroke-linecap:square;stroke-linejoin:miter;"/>
   </g>
   <g id="patch_4">
    <path d="M 518.4 388.8 
L 518.4 43.2 
" style="fill:none;stroke:#000000;stroke-linecap:square;stroke-linejoin:miter;"/>
   </g>
   <g id="patch_5">
    <path d="M 72 388.8 
L 518.4 388.8 
" style="fill:none;stroke:#000000;stroke-linecap:square;stroke-linejoin:miter;"/>
   </g>
   <g id="patch_6">
    <path d="M 72 388.8 
L 72 43.2 
" style="fill:none;stroke:#000000;stroke-linecap:square;stroke-linejoin:miter;"/>
   </g>
   <g id="matplotlib.axis_1">
    <g id="xtick_1">
     <g id="line2d_94">
      <defs>
       <path d="M 0 0 
L 0 -4 
" id="m34badb818a" style="stroke:#000000;stroke-width:0.5;"/>
      </defs>
      <g>
       <use style="stroke:#000000;stroke-width:0.5;" x="72.0" xlink:href="#m34badb818a" y="388.8"/>
      </g>
     </g>
     <g id="line2d_95">
      <defs>
       <path d="M 0 0 
L 0 4 
" id="m309c71effc" style="stroke:#000000;stroke-width:0.5;"/>
      </defs>
      <g>
       <use style="stroke:#000000;stroke-width:0.5;" x="72.0" xlink:href="#m309c71effc" y="43.2"/>
      </g>
     </g>
     <g id="text_1">
      <!-- −4 -->
      <defs>
       <path d="M 10.59375 35.5 
L 73.1875 35.5 
L 73.1875 27.203125 
L 10.59375 27.203125 
z
" id="BitstreamVeraSans-Roman-2212"/>
       <path d="M 37.796875 64.3125 
L 12.890625 25.390625 
L 37.796875 25.390625 
z
M 35.203125 72.90625 
L 47.609375 72.90625 
L 47.609375 25.390625 
L 58.015625 25.390625 
L 58.015625 17.1875 
L 47.609375 17.1875 
L 47.609375 0 
L 37.796875 0 
L 37.796875 17.1875 
L 4.890625 17.1875 
L 4.890625 26.703125 
z
" id="BitstreamVeraSans-Roman-34"/>
      </defs>
      <g transform="translate(63.1546875 401.918125)scale(0.12 -0.12)">
       <use xlink:href="#BitstreamVeraSans-Roman-2212"/>
       <use x="83.7890625" xlink:href="#BitstreamVeraSans-Roman-34"/>
      </g>
     </g>
    </g>
    <g id="xtick_2">
     <g id="line2d_96">
      <g>
       <use style="stroke:#000000;stroke-width:0.5;" x="135.771428571" xlink:href="#m34badb818a" y="388.8"/>
      </g>
     </g>
     <g id="line2d_97">
      <g>
       <use style="stroke:#000000;stroke-width:0.5;" x="135.771428571" xlink:href="#m309c71effc" y="43.2"/>
      </g>
     </g>
     <g id="text_2">
      <!-- −3 -->
      <defs>
       <path d="M 40.578125 39.3125 
Q 47.65625 37.796875 51.625 33 
Q 55.609375 28.21875 55.609375 21.1875 
Q 55.609375 10.40625 48.1875 4.484375 
Q 40.765625 -1.421875 27.09375 -1.421875 
Q 22.515625 -1.421875 17.65625 -0.515625 
Q 12.796875 0.390625 7.625 2.203125 
L 7.625 11.71875 
Q 11.71875 9.328125 16.59375 8.109375 
Q 21.484375 6.890625 26.8125 6.890625 
Q 36.078125 6.890625 40.9375 10.546875 
Q 45.796875 14.203125 45.796875 21.1875 
Q 45.796875 27.640625 41.28125 31.265625 
Q 36.765625 34.90625 28.71875 34.90625 
L 20.21875 34.90625 
L 20.21875 43.015625 
L 29.109375 43.015625 
Q 36.375 43.015625 40.234375 45.921875 
Q 44.09375 48.828125 44.09375 54.296875 
Q 44.09375 59.90625 40.109375 62.90625 
Q 36.140625 65.921875 28.71875 65.921875 
Q 24.65625 65.921875 20.015625 65.03125 
Q 15.375 64.15625 9.8125 62.3125 
L 9.8125 71.09375 
Q 15.4375 72.65625 20.34375 73.4375 
Q 25.25 74.21875 29.59375 74.21875 
Q 40.828125 74.21875 47.359375 69.109375 
Q 53.90625 64.015625 53.90625 55.328125 
Q 53.90625 49.265625 50.4375 45.09375 
Q 46.96875 40.921875 40.578125 39.3125 
" id="BitstreamVeraSans-Roman-33"/>
      </defs>
      <g transform="translate(126.926116071 401.918125)scale(0.12 -0.12)">
       <use xlink:href="#BitstreamVeraSans-Roman-2212"/>
       <use x="83.7890625" xlink:href="#BitstreamVeraSans-Roman-33"/>
      </g>
     </g>
    </g>
    <g id="xtick_3">
     <g id="line2d_98">
      <g>
       <use style="stroke:#000000;stroke-width:0.5;" x="199.542857143" xlink:href="#m34badb818a" y="388.8"/>
      </g>
     </g>
     <g id="line2d_99">
      <g>
       <use style="stroke:#000000;stroke-width:0.5;" x="199.542857143" xlink:href="#m309c71effc" y="43.2"/>
      </g>
     </g>
     <g id="text_3">
      <!-- −2 -->
      <defs>
       <path d="M 19.1875 8.296875 
L 53.609375 8.296875 
L 53.609375 0 
L 7.328125 0 
L 7.328125 8.296875 
Q 12.9375 14.109375 22.625 23.890625 
Q 32.328125 33.6875 34.8125 36.53125 
Q 39.546875 41.84375 41.421875 45.53125 
Q 43.3125 49.21875 43.3125 52.78125 
Q 43.3125 58.59375 39.234375 62.25 
Q 35.15625 65.921875 28.609375 65.921875 
Q 23.96875 65.921875 18.8125 64.3125 
Q 13.671875 62.703125 7.8125 59.421875 
L 7.8125 69.390625 
Q 13.765625 71.78125 18.9375 73 
Q 24.125 74.21875 28.421875 74.21875 
Q 39.75 74.21875 46.484375 68.546875 
Q 53.21875 62.890625 53.21875 53.421875 
Q 53.21875 48.921875 51.53125 44.890625 
Q 49.859375 40.875 45.40625 35.40625 
Q 44.1875 33.984375 37.640625 27.21875 
Q 31.109375 20.453125 19.1875 8.296875 
" id="BitstreamVeraSans-Roman-32"/>
      </defs>
      <g transform="translate(190.697544643 401.918125)scale(0.12 -0.12)">
       <use xlink:href="#BitstreamVeraSans-Roman-2212"/>
       <use x="83.7890625" xlink:href="#BitstreamVeraSans-Roman-32"/>
      </g>
     </g>
    </g>
    <g id="xtick_4">
     <g id="line2d_100">
      <g>
       <use style="stroke:#000000;stroke-width:0.5;" x="263.314285714" xlink:href="#m34badb818a" y="388.8"/>
      </g>
     </g>
     <g id="line2d_101">
      <g>
       <use style="stroke:#000000;stroke-width:0.5;" x="263.314285714" xlink:href="#m309c71effc" y="43.2"/>
      </g>
     </g>
     <g id="text_4">
      <!-- −1 -->
      <defs>
       <path d="M 12.40625 8.296875 
L 28.515625 8.296875 
L 28.515625 63.921875 
L 10.984375 60.40625 
L 10.984375 69.390625 
L 28.421875 72.90625 
L 38.28125 72.90625 
L 38.28125 8.296875 
L 54.390625 8.296875 
L 54.390625 0 
L 12.40625 0 
z
" id="BitstreamVeraSans-Roman-31"/>
      </defs>
      <g transform="translate(254.468973214 401.918125)scale(0.12 -0.12)">
       <use xlink:href="#BitstreamVeraSans-Roman-2212"/>
       <use x="83.7890625" xlink:href="#BitstreamVeraSans-Roman-31"/>
      </g>
     </g>
    </g>
    <g id="xtick_5">
     <g id="line2d_102">
      <g>
       <use style="stroke:#000000;stroke-width:0.5;" x="327.085714286" xlink:href="#m34badb818a" y="388.8"/>
      </g>
     </g>
     <g id="line2d_103">
      <g>
       <use style="stroke:#000000;stroke-width:0.5;" x="327.085714286" xlink:href="#m309c71effc" y="43.2"/>
      </g>
     </g>
     <g id="text_5">
      <!-- 0 -->
      <defs>
       <path d="M 31.78125 66.40625 
Q 24.171875 66.40625 20.328125 58.90625 
Q 16.5 51.421875 16.5 36.375 
Q 16.5 21.390625 20.328125 13.890625 
Q 24.171875 6.390625 31.78125 6.390625 
Q 39.453125 6.390625 43.28125 13.890625 
Q 47.125 21.390625 47.125 36.375 
Q 47.125 51.421875 43.28125 58.90625 
Q 39.453125 66.40625 31.78125 66.40625 
M 31.78125 74.21875 
Q 44.046875 74.21875 50.515625 64.515625 
Q 56.984375 54.828125 56.984375 36.375 
Q 56.984375 17.96875 50.515625 8.265625 
Q 44.046875 -1.421875 31.78125 -1.421875 
Q 19.53125 -1.421875 13.0625 8.265625 
Q 6.59375 17.96875 6.59375 36.375 
Q 6.59375 54.828125 13.0625 64.515625 
Q 19.53125 74.21875 31.78125 74.21875 
" id="BitstreamVeraSans-Roman-30"/>
      </defs>
      <g transform="translate(323.268214286 401.918125)scale(0.12 -0.12)">
       <use xlink:href="#BitstreamVeraSans-Roman-30"/>
      </g>
     </g>
    </g>
    <g id="xtick_6">
     <g id="line2d_104">
      <g>
       <use style="stroke:#000000;stroke-width:0.5;" x="390.857142857" xlink:href="#m34badb818a" y="388.8"/>
      </g>
     </g>
     <g id="line2d_105">
      <g>
       <use style="stroke:#000000;stroke-width:0.5;" x="390.857142857" xlink:href="#m309c71effc" y="43.2"/>
      </g>
     </g>
     <g id="text_6">
      <!-- 1 -->
      <g transform="translate(387.039642857 401.918125)scale(0.12 -0.12)">
       <use xlink:href="#BitstreamVeraSans-Roman-31"/>
      </g>
     </g>
    </g>
    <g id="xtick_7">
     <g id="line2d_106">
      <g>
       <use style="stroke:#000000;stroke-width:0.5;" x="454.628571429" xlink:href="#m34badb818a" y="388.8"/>
      </g>
     </g>
     <g id="line2d_107">
      <g>
       <use style="stroke:#000000;stroke-width:0.5;" x="454.628571429" xlink:href="#m309c71effc" y="43.2"/>
      </g>
     </g>
     <g id="text_7">
      <!-- 2 -->
      <g transform="translate(450.811071429 401.918125)scale(0.12 -0.12)">
       <use xlink:href="#BitstreamVeraSans-Roman-32"/>
      </g>
     </g>
    </g>
    <g id="xtick_8">
     <g id="line2d_108">
      <g>
       <use style="stroke:#000000;stroke-width:0.5;" x="518.4" xlink:href="#m34badb818a" y="388.8"/>
      </g>
     </g>
     <g id="line2d_109">
      <g>
       <use style="stroke:#000000;stroke-width:0.5;" x="518.4" xlink:href="#m309c71effc" y="43.2"/>
      </g>
     </g>
     <g id="text_8">
      <!-- 3 -->
      <g transform="translate(514.5825 401.918125)scale(0.12 -0.12)">
       <use xlink:href="#BitstreamVeraSans-Roman-33"/>
      </g>
     </g>
    </g>
    <g id="text_9">
     <!-- X1 -->
     <defs>
      <path d="M 6.296875 72.90625 
L 16.890625 72.90625 
L 35.015625 45.796875 
L 53.21875 72.90625 
L 63.8125 72.90625 
L 40.375 37.890625 
L 65.375 0 
L 54.78125 0 
L 34.28125 31 
L 13.625 0 
L 2.984375 0 
L 29 38.921875 
z
" id="BitstreamVeraSans-Roman-58"/>
     </defs>
     <g transform="translate(287.2725 418.531875)scale(0.12 -0.12)">
      <use xlink:href="#BitstreamVeraSans-Roman-58"/>
      <use x="68.505859375" xlink:href="#BitstreamVeraSans-Roman-31"/>
     </g>
    </g>
   </g>
   <g id="matplotlib.axis_2">
    <g id="ytick_1">
     <g id="line2d_110">
      <defs>
       <path d="M 0 0 
L 4 0 
" id="m11fd04441d" style="stroke:#000000;stroke-width:0.5;"/>
      </defs>
      <g>
       <use style="stroke:#000000;stroke-width:0.5;" x="72.0" xlink:href="#m11fd04441d" y="388.8"/>
      </g>
     </g>
     <g id="line2d_111">
      <defs>
       <path d="M 0 0 
L -4 0 
" id="m5dab6c13d9" style="stroke:#000000;stroke-width:0.5;"/>
      </defs>
      <g>
       <use style="stroke:#000000;stroke-width:0.5;" x="518.4" xlink:href="#m5dab6c13d9" y="388.8"/>
      </g>
     </g>
     <g id="text_10">
      <!-- −5 -->
      <defs>
       <path d="M 10.796875 72.90625 
L 49.515625 72.90625 
L 49.515625 64.59375 
L 19.828125 64.59375 
L 19.828125 46.734375 
Q 21.96875 47.46875 24.109375 47.828125 
Q 26.265625 48.1875 28.421875 48.1875 
Q 40.625 48.1875 47.75 41.5 
Q 54.890625 34.8125 54.890625 23.390625 
Q 54.890625 11.625 47.5625 5.09375 
Q 40.234375 -1.421875 26.90625 -1.421875 
Q 22.3125 -1.421875 17.546875 -0.640625 
Q 12.796875 0.140625 7.71875 1.703125 
L 7.71875 11.625 
Q 12.109375 9.234375 16.796875 8.0625 
Q 21.484375 6.890625 26.703125 6.890625 
Q 35.15625 6.890625 40.078125 11.328125 
Q 45.015625 15.765625 45.015625 23.390625 
Q 45.015625 31 40.078125 35.4375 
Q 35.15625 39.890625 26.703125 39.890625 
Q 22.75 39.890625 18.8125 39.015625 
Q 14.890625 38.140625 10.796875 36.28125 
z
" id="BitstreamVeraSans-Roman-35"/>
      </defs>
      <g transform="translate(50.309375 392.11125)scale(0.12 -0.12)">
       <use xlink:href="#BitstreamVeraSans-Roman-2212"/>
       <use x="83.7890625" xlink:href="#BitstreamVeraSans-Roman-35"/>
      </g>
     </g>
    </g>
    <g id="ytick_2">
     <g id="line2d_112">
      <g>
       <use style="stroke:#000000;stroke-width:0.5;" x="72.0" xlink:href="#m11fd04441d" y="302.4"/>
      </g>
     </g>
     <g id="line2d_113">
      <g>
       <use style="stroke:#000000;stroke-width:0.5;" x="518.4" xlink:href="#m5dab6c13d9" y="302.4"/>
      </g>
     </g>
     <g id="text_11">
      <!-- 0 -->
      <g transform="translate(60.365 305.71125)scale(0.12 -0.12)">
       <use xlink:href="#BitstreamVeraSans-Roman-30"/>
      </g>
     </g>
    </g>
    <g id="ytick_3">
     <g id="line2d_114">
      <g>
       <use style="stroke:#000000;stroke-width:0.5;" x="72.0" xlink:href="#m11fd04441d" y="216.0"/>
      </g>
     </g>
     <g id="line2d_115">
      <g>
       <use style="stroke:#000000;stroke-width:0.5;" x="518.4" xlink:href="#m5dab6c13d9" y="216.0"/>
      </g>
     </g>
     <g id="text_12">
      <!-- 5 -->
      <g transform="translate(60.365 219.31125)scale(0.12 -0.12)">
       <use xlink:href="#BitstreamVeraSans-Roman-35"/>
      </g>
     </g>
    </g>
    <g id="ytick_4">
     <g id="line2d_116">
      <g>
       <use style="stroke:#000000;stroke-width:0.5;" x="72.0" xlink:href="#m11fd04441d" y="129.6"/>
      </g>
     </g>
     <g id="line2d_117">
      <g>
       <use style="stroke:#000000;stroke-width:0.5;" x="518.4" xlink:href="#m5dab6c13d9" y="129.6"/>
      </g>
     </g>
     <g id="text_13">
      <!-- 10 -->
      <g transform="translate(52.73 132.91125)scale(0.12 -0.12)">
       <use xlink:href="#BitstreamVeraSans-Roman-31"/>
       <use x="63.623046875" xlink:href="#BitstreamVeraSans-Roman-30"/>
      </g>
     </g>
    </g>
    <g id="ytick_5">
     <g id="line2d_118">
      <g>
       <use style="stroke:#000000;stroke-width:0.5;" x="72.0" xlink:href="#m11fd04441d" y="43.2"/>
      </g>
     </g>
     <g id="line2d_119">
      <g>
       <use style="stroke:#000000;stroke-width:0.5;" x="518.4" xlink:href="#m5dab6c13d9" y="43.2"/>
      </g>
     </g>
     <g id="text_14">
      <!-- 15 -->
      <g transform="translate(52.73 46.51125)scale(0.12 -0.12)">
       <use xlink:href="#BitstreamVeraSans-Roman-31"/>
       <use x="63.623046875" xlink:href="#BitstreamVeraSans-Roman-35"/>
      </g>
     </g>
    </g>
    <g id="text_15">
     <!-- X2 -->
     <g transform="translate(42.81375 223.9275)rotate(-90.0)scale(0.12 -0.12)">
      <use xlink:href="#BitstreamVeraSans-Roman-58"/>
      <use x="68.505859375" xlink:href="#BitstreamVeraSans-Roman-32"/>
     </g>
    </g>
   </g>
  </g>
 </g>
 <defs>
  <clipPath id="p788e9b1e54">
   <rect height="345.6" width="446.4" x="72.0" y="43.2"/>
  </clipPath>
 </defs>
</svg>
